<?xml version="1.0" encoding="utf-8"?>
<!-- Generator: Adobe Illustrator 24.3.0, SVG Export Plug-In . SVG Version: 6.00 Build 0)  -->
<svg version="1.1" id="レイヤー_1" xmlns="http://www.w3.org/2000/svg" xmlns:xlink="http://www.w3.org/1999/xlink" x="0px"
	 y="0px" viewBox="0 0 512 512" style="enable-background:new 0 0 512 512;" xml:space="preserve">
<style type="text/css">
	.st0{fill:#1D9BEF;}
</style>
<g id="twitter" transform="translate(-15.8 -60.6)">
	<path id="パス_1" class="st0" d="M511.648,167.349c-13.502,19.726-30.198,37.063-49.4,51.3c0.473,4.35,0.673,8.725,0.6,13.1
		c0,33.3-6.3,66.3-18.8,98.8c-12.556,32.596-30.395,62.901-52.8,89.7c-22.7,27.3-52.3,49.4-88.8,66.3s-76.4,25.333-119.7,25.3
		c-53.8,0-104.233-14.8-151.3-44.4c15,1.3,22.9,1.9,23.8,1.9c45,0,85.633-14.167,121.9-42.5c-20.693-0.219-40.76-7.13-57.2-19.7
		c-16.497-12.215-28.6-29.439-34.5-49.1c6.171,1.362,12.481,2,18.8,1.9c8.905,0.021,17.765-1.259,26.3-3.8
		c-22.9-4.6-41.867-15.733-56.9-33.4c-15-17.7-22.5-38.433-22.5-62.2v-1.3c14.6,7.5,29.4,11.5,44.4,11.9
		c-29.2-20-43.8-47.3-43.8-81.9c0-17.1,4.367-33.767,13.1-50c24.808,30.261,55.536,55.137,90.3,73.1
		c34.916,18.225,73.443,28.471,112.8,30c-1.494-7.412-2.331-14.941-2.5-22.5c0-27.1,9.6-50.333,28.8-69.7
		c19.2-19.4,42.333-29.1,69.4-29.1c28.3,0,52.467,10.633,72.5,31.9c20.8-4.2,41.5-12.3,61.9-24.4c-7.1,24.2-21.267,42.533-42.5,55
		C473.748,181.149,492.448,175.749,511.648,167.349z"/>
</g>
</svg>
